<svg width="16" height="16" viewBox="0 0 16 16" fill="none" xmlns="http://www.w3.org/2000/svg">
<path id="Vector" d="M8 2C4.6875 2 2 4.6875 2 8C2 11.3125 4.6875 14 8 14C8.55313 14 9 14.4469 9 15C9 15.5531 8.55313 16 8 16C3.58125 16 0 12.4187 0 8C0 3.58125 3.58125 0 8 0C12.4187 0 16 3.58125 16 8V9C16 10.6562 14.6562 12 13 12C12.0844 12 11.2625 11.5875 10.7125 10.9406C10 11.5969 9.04688 12 8 12C5.79063 12 4 10.2094 4 8C4 5.79063 5.79063 4 8 4C8.87187 4 9.67813 4.27813 10.3344 4.75313C10.5125 4.59688 10.7437 4.5 11 4.5C11.5531 4.5 12 4.94688 12 5.5V9C12 9.55313 12.4469 10 13 10C13.5531 10 14 9.55313 14 9V8C14 4.6875 11.3125 2 8 2ZM10 8C10 6.89687 9.10312 6 8 6C6.89687 6 6 6.89687 6 8C6 9.10312 6.89687 10 8 10C9.10312 10 10 9.10312 10 8Z" fill="#20B37C"/>
</svg>
