<svg width="10" height="14" viewBox="0 0 10 14" fill="none" xmlns="http://www.w3.org/2000/svg">
<path id="Vector" d="M1.66667 0C0.747396 0 0 0.784766 0 1.75V12.25C0 13.2152 0.747396 14 1.66667 14H8.33333C9.2526 14 10 13.2152 10 12.25V4.375H6.66667C6.20573 4.375 5.83333 3.98398 5.83333 3.5V0H1.66667ZM6.66667 0V3.5H10L6.66667 0ZM2.08333 1.75H3.75C3.97917 1.75 4.16667 1.94687 4.16667 2.1875C4.16667 2.42812 3.97917 2.625 3.75 2.625H2.08333C1.85417 2.625 1.66667 2.42812 1.66667 2.1875C1.66667 1.94687 1.85417 1.75 2.08333 1.75ZM2.08333 3.5H3.75C3.97917 3.5 4.16667 3.69688 4.16667 3.9375C4.16667 4.17812 3.97917 4.375 3.75 4.375H2.08333C1.85417 4.375 1.66667 4.17812 1.66667 3.9375C1.66667 3.69688 1.85417 3.5 2.08333 3.5ZM2.5 6.125H7.5C7.96094 6.125 8.33333 6.51602 8.33333 7V8.75C8.33333 9.23398 7.96094 9.625 7.5 9.625H2.5C2.03906 9.625 1.66667 9.23398 1.66667 8.75V7C1.66667 6.51602 2.03906 6.125 2.5 6.125ZM2.5 7V8.75H7.5V7H2.5ZM6.25 11.375H7.91667C8.14583 11.375 8.33333 11.5719 8.33333 11.8125C8.33333 12.0531 8.14583 12.25 7.91667 12.25H6.25C6.02083 12.25 5.83333 12.0531 5.83333 11.8125C5.83333 11.5719 6.02083 11.375 6.25 11.375Z"/>
</svg>
