<svg width="14" height="16" viewBox="0 0 14 16" fill="none" xmlns="http://www.w3.org/2000/svg">
<path id="Vector" d="M9.49783 6.99897C8.11678 6.99897 6.99819 5.88039 6.99819 4.49934C6.99819 3.11829 8.11678 1.99971 9.49783 1.99971C10.8789 1.99971 11.9975 3.11829 11.9975 4.49934C11.9975 5.88039 10.8789 6.99897 9.49783 6.99897ZM9.49783 8.99868C11.9818 8.99868 13.9972 6.98335 13.9972 4.49934C13.9972 2.01533 11.9818 0 9.49783 0C7.01382 0 4.99849 2.01533 4.99849 4.49934C4.99849 5.38046 5.25157 6.20222 5.68901 6.89586L0.292926 12.2919C-0.0976419 12.6825 -0.0976419 13.3168 0.292926 13.7074L2.29263 15.7071C2.6832 16.0976 3.31748 16.0976 3.70805 15.7071C4.09862 15.3165 4.09862 14.6822 3.70805 14.2917L2.41449 12.9981L2.99878 12.4138L4.29234 13.7074C4.68291 14.0979 5.31719 14.0979 5.70776 13.7074C6.09833 13.3168 6.09833 12.6825 5.70776 12.2919L4.4142 10.9984L7.10443 8.30816C7.79808 8.74559 8.61983 8.99868 9.50095 8.99868H9.49783Z" fill="#20B37C"/>
</svg>
