<svg width="16" height="14" viewBox="0 0 16 14" fill="none" xmlns="http://www.w3.org/2000/svg">
<path id="Vector" d="M0.669221 0C0.298361 0 0 0.292578 0 0.65625C0 1.01992 0.298361 1.3125 0.669221 1.3125H2.12199L3.80341 9.9668C3.86475 10.2758 4.14081 10.5 4.46148 10.5H13.6075C13.9784 10.5 14.2767 10.2074 14.2767 9.84375C14.2767 9.48008 13.9784 9.1875 13.6075 9.1875H5.01637L4.76263 7.875H13.6019C14.0007 7.875 14.352 7.61523 14.4608 7.23789L15.9665 1.98789C16.1254 1.43008 15.6988 0.875 15.1077 0.875H3.40188L3.33495 0.533203C3.27361 0.224219 2.99755 0 2.67689 0H0.669221ZM4.90762 14C5.64656 14 6.24607 13.4121 6.24607 12.6875C6.24607 11.9629 5.64656 11.375 4.90762 11.375C4.16869 11.375 3.56918 11.9629 3.56918 12.6875C3.56918 13.4121 4.16869 14 4.90762 14ZM14.2767 12.6875C14.2767 11.9629 13.6772 11.375 12.9383 11.375C12.1993 11.375 11.5998 11.9629 11.5998 12.6875C11.5998 13.4121 12.1993 14 12.9383 14C13.6772 14 14.2767 13.4121 14.2767 12.6875Z" />
</svg>
