<svg width="12" height="18" viewBox="0 0 12 18" fill="none" xmlns="http://www.w3.org/2000/svg">
<path d="M2.18182 0C0.978409 0 0 1.00898 0 2.25V15.75C0 16.991 0.978409 18 2.18182 18H9.81818C11.0216 18 12 16.991 12 15.75V2.25C12 1.00898 11.0216 0 9.81818 0H2.18182ZM6 14.0625C6.28933 14.0625 6.5668 14.181 6.77139 14.392C6.97597 14.603 7.09091 14.8891 7.09091 15.1875C7.09091 15.4859 6.97597 15.772 6.77139 15.983C6.5668 16.194 6.28933 16.3125 6 16.3125C5.71067 16.3125 5.4332 16.194 5.22861 15.983C5.02403 15.772 4.90909 15.4859 4.90909 15.1875C4.90909 14.8891 5.02403 14.603 5.22861 14.392C5.4332 14.181 5.71067 14.0625 6 14.0625Z" fill="#AEAEB2"/>
</svg>
