<svg width="179" height="173" viewBox="0 0 179 173" fill="none" xmlns="http://www.w3.org/2000/svg">
<g id="Layer_1" clip-path="url(#clip0_124_1065)">
<g id="Group">
<g id="Group_2">
<path id="Vector" d="M177.831 60.979C177.073 59.4666 175.24 58.8604 173.73 59.6228C173.375 59.8041 172.884 60.0603 172.325 60.3666C174.37 58.4104 175.955 57.4042 176.004 57.3729C177.44 56.4917 177.9 54.6105 177.024 53.1606C176.147 51.7106 174.27 51.2481 172.828 52.1231C172.611 52.2543 168.733 54.6543 164.842 59.4603C167.309 53.1106 171.424 48.7982 171.48 48.742C172.654 47.5358 172.642 45.5921 171.436 44.4046C170.23 43.2172 168.298 43.2359 167.117 44.4421C166.837 44.7296 161.43 50.3419 158.608 58.6979C158.242 57.9729 157.775 57.2917 157.179 56.6792C152.89 52.2731 146.88 54.7668 144.295 56.6917C142.946 57.6979 142.667 59.6041 143.661 60.9665C144.655 62.329 146.564 62.6227 147.925 61.629C147.956 61.604 151.175 59.2916 152.816 60.9728C154.003 62.1915 153.835 65.6789 153.785 66.8226C153.773 67.0413 153.767 67.2226 153.761 67.3726C153.748 67.8538 151.511 70.7349 148.273 68.8537C146.831 68.01 146.713 65.6101 146.713 64.8601C146.731 63.1727 145.395 61.779 143.717 61.754C142.033 61.7228 140.634 63.0727 140.603 64.7664C140.591 65.3289 140.603 70.3724 144.301 73.5223C144.724 73.8848 145.178 74.1911 145.65 74.466C147.614 76.591 148.136 78.4972 148.658 81.6033C148.919 83.1595 150.106 102.134 150.647 102.265C170.224 106.896 161.368 85.4594 162.53 84.8032C164.823 83.5032 167.129 72.0474 167.129 72.0474C167.72 70.4537 172.53 67.1101 176.477 65.1039C177.981 64.3414 178.584 62.4915 177.825 60.979H177.831Z" fill="white"/>
<path id="Vector_2" d="M150.342 103.065C149.603 102.859 149.447 102.146 148.353 87.8718C148.13 84.9782 147.918 82.247 147.838 81.7533C147.316 78.6347 146.818 77.0035 145.128 75.1348C144.612 74.8286 144.171 74.5161 143.773 74.1723C139.783 70.7725 139.77 65.3601 139.783 64.7539C139.802 63.7102 140.224 62.7352 140.976 62.0103C141.473 61.529 142.07 61.1978 142.723 61.0353C141.803 59.3479 142.238 57.1917 143.81 56.023C146.595 53.9418 153.102 51.2794 157.794 56.098C158.012 56.323 158.223 56.5605 158.416 56.8167C161.411 49.167 166.309 44.0859 166.533 43.8547C168.037 42.3172 170.504 42.2922 172.039 43.8047C173.568 45.3171 173.593 47.7983 172.095 49.3357C171.983 49.4545 170.05 51.4981 168.086 54.798C170.473 52.5981 172.3 51.4731 172.412 51.4044C173.301 50.8607 174.345 50.6982 175.358 50.9482C176.371 51.1919 177.222 51.8294 177.763 52.7231C178.876 54.5605 178.291 56.9729 176.464 58.0917C176.446 58.1042 176.222 58.2479 175.849 58.5166C176.017 58.5479 176.185 58.5916 176.352 58.6479C177.341 58.9729 178.142 59.6666 178.608 60.6041C179.578 62.529 178.807 64.8914 176.887 65.8601C172.493 68.0913 168.472 71.1662 167.968 72.2974C167.552 74.3473 165.625 83.3157 163.294 85.3157C163.319 85.7219 163.475 86.5656 163.618 87.3281C164.314 91.0905 165.6 98.084 161.896 101.64C159.59 103.853 155.756 104.34 150.491 103.096C150.448 103.084 150.411 103.078 150.373 103.065H150.342ZM144.264 62.6852C144.09 62.6352 143.904 62.6102 143.711 62.604C143.12 62.5915 142.555 62.8102 142.132 63.229C141.703 63.6415 141.467 64.1977 141.455 64.7914C141.442 65.3164 141.455 69.9912 144.854 72.8911C145.209 73.1911 145.606 73.4724 146.079 73.7473C146.153 73.7911 146.216 73.8411 146.271 73.9036C148.484 76.2972 149 78.5534 149.491 81.4783C149.578 82.0158 149.746 84.1032 150.025 87.7468C150.38 92.3279 150.951 99.7652 151.293 101.559C155.731 102.54 158.9 102.159 160.709 100.421C163.754 97.4965 162.574 91.0842 161.94 87.6406C161.517 85.3657 161.362 84.5095 162.126 84.0782C163.338 83.3907 165.24 77.216 166.315 71.8912C166.321 71.8474 166.334 71.8037 166.352 71.7662C167.111 69.71 172.623 66.1351 176.104 64.3602C177.191 63.804 177.633 62.4665 177.08 61.3665C176.812 60.8353 176.359 60.4416 175.799 60.2541C175.24 60.0666 174.637 60.1103 174.109 60.3791C173.754 60.5603 173.276 60.8103 172.729 61.1103C172.362 61.3165 171.896 61.204 171.648 60.8666C171.399 60.5228 171.442 60.0478 171.747 59.7603C173.848 57.7479 175.488 56.7042 175.557 56.6605C176.607 56.0167 176.937 54.648 176.309 53.5981C176.004 53.0918 175.513 52.7356 174.942 52.5919C174.37 52.4481 173.773 52.5419 173.27 52.8481C173.108 52.9481 169.317 55.2855 165.501 59.9978C165.24 60.3166 164.792 60.4041 164.426 60.1916C164.071 59.9791 163.916 59.5416 164.065 59.1541C166.564 52.7231 170.703 48.342 170.877 48.1545C171.735 47.2733 171.722 45.8609 170.852 45.0046C169.982 44.1422 168.577 44.1547 167.72 45.0296C167.496 45.2609 162.17 50.7794 159.404 58.9666C159.298 59.2854 159.006 59.5104 158.67 59.5354C158.335 59.5604 158.018 59.3791 157.863 59.0791C157.508 58.3854 157.079 57.7729 156.582 57.2667C152.704 53.2856 147.179 55.5918 144.798 57.3667C143.829 58.0917 143.624 59.4791 144.345 60.4666C145.06 61.4478 146.452 61.6665 147.434 60.9478C147.459 60.9291 151.25 58.1604 153.413 60.3853C154.711 61.7165 154.724 64.7227 154.618 66.8663L154.593 67.4038C154.575 68.0975 153.686 69.1475 152.617 69.7475C151.138 70.5787 149.441 70.5162 147.85 69.585C146.06 68.5413 145.874 65.9351 145.874 64.8602C145.886 63.8227 145.196 62.9415 144.258 62.679L144.264 62.6852ZM147.079 62.9477C147.39 63.5227 147.57 64.1789 147.558 64.8789C147.558 66.0664 147.856 67.6413 148.695 68.1288C149.603 68.6538 150.479 68.7788 151.306 68.4975C152.219 68.185 152.791 67.4851 152.922 67.2351L152.94 66.7851C153.12 63.0727 152.561 61.9228 152.213 61.5603C151.281 60.6041 149.106 61.8103 148.416 62.3103C147.999 62.6165 147.539 62.8227 147.073 62.9415L147.079 62.9477ZM152.928 67.3413C152.928 67.3413 152.928 67.3538 152.928 67.3601V67.3413Z" fill="#D2D2DC"/>
</g>
<g id="Group_3">
<path id="Vector_3" d="M164.575 66.1163C164.575 66.1163 168.59 61.8102 172.331 60.3665C176.066 58.9228 164.575 66.1163 164.575 66.1163Z" fill="white"/>
<path id="Vector_4" d="M164.345 66.9288C164.22 66.8913 164.102 66.8288 163.997 66.7351C163.661 66.4163 163.642 65.8851 163.959 65.5414C164.127 65.3601 168.155 61.0728 172.027 59.5791C172.462 59.4103 172.946 59.6291 173.108 60.0666C173.276 60.5041 173.058 60.9915 172.623 61.154C169.112 62.5102 165.221 66.6538 165.184 66.6913C164.96 66.9288 164.637 67.0101 164.345 66.9288Z" fill="#D2D2DC"/>
</g>
<g id="Group_4">
<path id="Vector_5" d="M161.212 64.2914C161.212 64.2914 162.648 61.6602 164.842 59.4666C167.03 57.2729 161.212 64.2914 161.212 64.2914Z" fill="white"/>
<path id="Vector_6" d="M160.989 65.1038C160.927 65.0851 160.864 65.0601 160.809 65.0289C160.405 64.8039 160.255 64.2914 160.479 63.8851C160.541 63.7726 162.002 61.1227 164.252 58.8666C164.581 58.5353 165.109 58.5416 165.439 58.8666C165.768 59.1978 165.768 59.729 165.439 60.0603C163.363 62.1415 161.965 64.6726 161.952 64.6976C161.759 65.0476 161.355 65.2038 160.989 65.1038Z" fill="#D2D2DC"/>
</g>
</g>
<path id="Union" fill-rule="evenodd" clip-rule="evenodd" d="M41.2866 72.7847L74.9722 59.5352C81.1856 57.2515 87.9409 58.0556 93.1812 61.1983C93.8825 61.4669 94.5686 61.779 95.2397 62.1164H95.2272C96.7561 62.8914 98.2291 63.8226 99.671 64.7726C104.621 68.0366 127.453 86.0115 143.956 99.5286C144.138 98.5037 144.33 97.4797 144.531 96.459C144.565 96.2856 144.594 96.094 144.624 95.8935C144.764 94.9664 144.931 93.8474 145.805 93.4466C146.239 93.2474 146.734 93.228 147.21 93.2093L147.216 93.2091L158.639 92.7778C160.069 92.7216 161.43 92.4904 162.835 92.2279C162.955 92.2055 163.079 92.1812 163.206 92.1563C164.287 91.9442 165.583 91.6899 166.545 92.2716C167.575 92.8975 168.005 94.1968 168.372 95.3035C168.397 95.3793 168.422 95.4541 168.447 95.5277C169.074 97.3964 169.559 99.3214 169.951 101.259C170.354 103.262 170.614 105.292 170.873 107.321C171.061 108.794 171.249 110.266 171.492 111.727C172.076 115.215 172.567 118.689 172.406 122.239C172.238 125.939 171.386 129.652 169.572 132.876C167.546 136.464 164.214 139.395 160.249 140.57C155.615 141.944 149.094 141.845 145.13 138.683C139.416 136.334 120.294 126.034 107.694 119.219C106.836 138.421 104.512 157.557 104.512 157.557C104.512 157.557 76.2525 171.244 53.5675 170.787C49.0182 170.696 45.4402 169.928 42.5807 168.42C41.5468 169.592 40.1578 170.325 38.608 170.325H7.81233C5.115 170.325 2.7657 168.056 2.1442 164.844C1.76508 162.882 1.4046 160.907 1.07521 158.919C0.689872 156.601 0.335613 154.263 0.142946 151.932C0.0559356 150.795 0 149.663 0 148.532C0.0027821 145.125 0.624824 142.231 1.6885 139.81C1.35705 138.637 2.02164 137.097 2.58247 135.797C2.71665 135.486 2.84489 135.189 2.95212 134.914C3.83466 132.645 4.73585 130.383 5.66189 128.133C7.55127 123.533 9.52766 118.964 11.5911 114.433C16.1343 104.465 20.9385 94.6278 26.7745 85.3282C27.831 83.6407 28.9249 81.9658 30.1244 80.4096H30.143C30.7272 79.6534 31.3425 78.9221 31.9951 78.2284C33.977 76.1281 36.1108 74.793 38.2905 74.0671C39.2085 73.6092 40.2052 73.1819 41.2866 72.7847Z" fill="#F2F2F7"/>
<path id="Vector_7" opacity="0.9" d="M108.913 129.983C108.913 129.983 108.888 129.983 108.875 129.983C108.279 129.964 107.806 129.458 107.831 128.858C108.72 101.553 95.8425 77.1097 95.712 76.866C95.4323 76.3348 95.625 75.6785 96.1533 75.391C96.6815 75.1098 97.3341 75.3035 97.62 75.8348C97.7505 76.0848 110.902 101.021 109.994 128.927C109.976 129.514 109.497 129.983 108.913 129.983Z" fill="#D2D2DC"/>
<g id="Group_5">
<path id="Vector_8" d="M35.5127 33.805C38.9745 31.5926 41.5041 32.5363 43.0081 33.7175C43.2194 33.88 43.4183 34.0613 43.611 34.2488C41.3549 26.4615 41.9205 20.3305 45.3015 15.9869C48.2412 12.2121 53.4121 9.80589 60.2611 9.03092C65.401 8.44344 69.7267 8.98092 69.7702 8.98717C69.9007 9.00592 70.0188 9.08092 70.0871 9.19341C70.5905 10.0496 82.4302 30.2677 82.7907 41.4048C83.1512 52.5544 83.2879 56.0792 83.2879 56.0792C83.2879 56.2042 83.2444 56.323 83.1574 56.4105C83.1015 56.4667 79.3662 59.8916 72.1567 60.7791L74.2201 70.1412C74.245 70.2662 74.2201 70.4037 74.1331 70.5037C74.0275 70.6349 72.424 72.5161 66.4265 73.0724C62.2002 73.4661 55.7925 73.2036 46.184 71.2099C46.01 71.1724 45.8732 71.0287 45.8484 70.8474L42.8527 49.5232C39.9565 50.0294 36.5009 48.1983 34.4375 44.7859C31.9204 40.6235 32.3928 35.7987 35.519 33.805H35.5127Z" fill="white"/>
<path id="Vector_9" d="M38.1728 7.37479C41.8583 7.03106 45.3636 8.03102 48.2039 9.9747C38.4338 13.7183 31.9329 23.9304 32.9708 35.2488C33.0143 35.7488 33.0827 36.2425 33.1573 36.73C28.3592 34.4926 24.8353 29.8365 24.3132 24.1617C23.5301 15.6807 29.739 8.16852 38.1728 7.38104V7.37479Z" fill="#D2D2DC"/>
<path id="Vector_10" d="M44.2263 43.4359L34.8478 43.8297L28.6265 33.9425C25.5501 29.0552 25.4195 22.8554 28.2909 17.8494C31.4917 12.2746 35.4071 5.91229 36.6688 5.79355C38.1045 5.6623 54.7298 1.64995 65.1959 0.112503C71.0816 -0.749966 76.5446 3.34989 77.4085 9.26842L76.9548 21.9305L69.6646 8.83719C69.6646 8.83719 61.181 19.9555 45.2332 20.293L44.2263 43.4297V43.4359Z" fill="#D2D2DC"/>
<g id="Group_6">
<path id="Vector_11" d="M44.4126 48.4857C41.4977 50.2732 37.1907 48.517 34.7917 44.5609C32.3989 40.6048 32.8215 35.9549 35.7364 34.1675C38.6512 32.38 42.9583 34.1362 45.3573 38.0923L44.4126 48.4857Z" fill="white"/>
<path id="Vector_12" d="M41.8832 50.2044C39.0056 50.2044 35.867 48.317 33.9217 45.0984C32.6476 42.9984 32.0572 40.6423 32.2561 38.4611C32.4674 36.1612 33.5115 34.33 35.2082 33.2925C36.9049 32.2551 39.0056 32.1613 41.1312 33.0238C43.1511 33.8488 44.9659 35.455 46.2337 37.5549C46.5258 38.0424 46.3767 38.6736 45.8919 38.9673C45.4071 39.2611 44.7794 39.1048 44.4873 38.6236C43.4432 36.8987 41.9764 35.5862 40.3605 34.9237C38.8565 34.3112 37.4021 34.3487 36.271 35.0425C35.1398 35.7362 34.4375 37.0112 34.2884 38.6423C34.1268 40.386 34.6178 42.2985 35.6619 44.0234C37.7564 47.4858 41.4419 49.092 43.8782 47.6045C44.363 47.3108 44.9907 47.467 45.2828 47.9483C45.5749 48.4357 45.4258 49.067 44.941 49.3607C44.0087 49.9294 42.9646 50.1982 41.877 50.1982L41.8832 50.2044Z" fill="#D2D2DC"/>
</g>
<path id="Vector_13" d="M68.8628 61.6353C64.9225 61.6353 60.199 60.8603 54.6801 58.6854C54.1518 58.4791 53.897 57.8791 54.1021 57.3542C54.3072 56.8229 54.8976 56.5667 55.4259 56.7729C71.2991 63.0289 80.0189 57.0917 81.815 55.6417C81.7653 54.3355 81.6224 50.2857 81.3365 41.4547C80.9884 30.6926 68.9561 10.1496 68.8318 9.94337C68.5459 9.45589 68.7075 8.82466 69.1922 8.53092C69.677 8.24343 70.3047 8.40593 70.5968 8.89341C71.1003 9.75588 83.0208 30.0989 83.3812 41.386C83.7417 52.5293 83.8784 56.0542 83.8784 56.0605C83.8909 56.3542 83.7728 56.6417 83.5615 56.8479C83.2756 57.1167 78.3719 61.6415 68.8628 61.6415V61.6353Z" fill="#D2D2DC"/>
<path id="Vector_14" d="M46.2647 71.8162C45.7613 71.8162 45.3262 71.4475 45.2517 70.9287L42.2249 49.4108C42.1441 48.8483 42.5357 48.3295 43.095 48.2483C43.6606 48.1733 44.1702 48.5608 44.251 49.1233L47.2778 70.6412C47.3586 71.2037 46.967 71.7224 46.4077 71.8037C46.3579 71.8099 46.3082 71.8162 46.2647 71.8162Z" fill="#D2D2DC"/>
<path id="Vector_15" d="M73.7913 71.2599C73.3189 71.2599 72.8963 70.9349 72.7906 70.4537L70.6651 60.804C70.5408 60.2478 70.8888 59.6978 71.442 59.5791C71.9889 59.4603 72.5358 59.8041 72.6601 60.3603L74.7857 70.01C74.91 70.5662 74.5619 71.1162 74.0088 71.2349C73.9342 71.2537 73.8596 71.2599 73.785 71.2599H73.7913Z" fill="#D2D2DC"/>
</g>
<path id="Vector_16" opacity="0.9" d="M42.8219 173C42.3868 173 41.9766 172.737 41.8088 172.3L37.3464 160.619C37.2594 160.388 37.2532 160.138 37.3216 159.9L45.2831 134.526C45.4633 133.951 46.0662 133.639 46.6379 133.814C47.2097 133.995 47.5205 134.608 47.3465 135.176L39.4968 160.188L43.8225 171.513C44.0338 172.075 43.7604 172.7 43.201 172.919C43.0767 172.969 42.94 172.994 42.8157 172.994L42.8219 173Z" fill="#D2D2DC"/>
<path id="Vector_17" opacity="0.9" d="M144.376 131.008C143.897 131.008 143.462 130.689 143.332 130.208C143.164 129.595 139.273 114.971 141.946 98.9465C142.045 98.3527 142.598 97.959 143.189 98.0527C143.779 98.1527 144.177 98.7152 144.077 99.3027C141.48 114.858 145.376 129.483 145.414 129.627C145.569 130.208 145.233 130.802 144.655 130.964C144.562 130.989 144.463 131.002 144.37 131.002L144.376 131.008Z" fill="#D2D2DC"/>
</g>
<defs>
<clipPath id="clip0_124_1065">
<rect width="179" height="173" fill="white"/>
</clipPath>
</defs>
</svg>
